<svg width="26" height="22" viewBox="0 0 26 22" fill="none" xmlns="http://www.w3.org/2000/svg">
<path d="M6.16667 10V6C6.16667 4.67392 6.8471 3.40215 8.05827 2.46447C9.26944 1.52678 10.9121 1 12.625 1C14.3379 1 15.9806 1.52678 17.1917 2.46447C18.4029 3.40215 19.0833 4.67392 19.0833 6V10M3.58333 10H21.6667C23.0934 10 24.25 10.8954 24.25 12V19C24.25 20.1046 23.0934 21 21.6667 21H3.58333C2.1566 21 1 20.1046 1 19V12C1 10.8954 2.1566 10 3.58333 10Z" stroke="#1E1E1E" stroke-width="2" stroke-linecap="round" stroke-linejoin="round"/>
</svg>
